<svg xmlns="http://www.w3.org/2000/svg" xmlns:xlink="http://www.w3.org/1999/xlink" width="60" height="60" viewBox="0 0 60 60">
  <defs>
    <clipPath id="clip-icons">
      <rect width="60" height="60"/>
    </clipPath>
  </defs>
  <g id="icons" clip-path="url(#clip-icons)">
    <g id="Group_3" data-name="Group 3" transform="translate(7.999 1)">
      <path id="Path_5" data-name="Path 5" d="M1555.28,946.094c-4.2-.494-5.849,1.79-8.235,1.571-2.152-.2-3.128-2.026-3.257-4.517-.129-2.514,0-10.071,0-10.071,0-.335-1.417-.606-3.166-.606s-3.165.271-3.166.606V943.91c0,5.24,2.124,9.057,3.83,12.125,1.325,2.383,2.372,4.265,2.372,6.327,0,2.29-.579,9.794-8.023,10.193a12.68,12.68,0,0,1-3.187-.333,8.9,8.9,0,0,0-5.642.223c-4.255,1.9-4.255,6-4.255,9.609v9.193c0,.335,1.417.606,3.166.606s3.165-.271,3.166-.606c0,0-.082-6.18,0-8.238.092-2.258,1.28-3.377,2.242-3.459,3.667-.312,4.608,5.87,14.976,5.87,7.948,0,15.866-5.417,19.518-13.5C1570.162,961.857,1566.653,947.434,1555.28,946.094Z" transform="translate(-1522.55 -932.471)" fill="#0299c6"/>
      <path id="Path_6" data-name="Path 6" d="M2097.211,1637.917c-6.859,0-9.316-3.257-9.432-4.833a1.135,1.135,0,0,1,.908-1.329c5.2-.764,8.349-3.917,9.376-9.372a22.59,22.59,0,0,0,.134-5.956c-.215-3.1-.418-6.032,2.111-8.561a7.547,7.547,0,0,1,5.276-2.187,8.773,8.773,0,0,1,4.99,1.684c4.793,3.291,6.042,11.128,2.968,18.636C2110.85,1632.571,2103.525,1637.917,2097.211,1637.917Z" transform="translate(-2073.419 -1588.581)" fill="#fff"/>
      <path id="Path_7" data-name="Path 7" d="M2097.438,2355.193a10.188,10.188,0,0,1-8.751,7.041,1.134,1.134,0,0,0-.907,1.329c.115,1.578,2.573,4.834,9.432,4.834,6.314,0,13.639-5.347,16.33-11.918.175-.427.334-.856.481-1.285Z" transform="translate(-2073.42 -2319.06)" fill="#8ccbd3"/>
    </g>
  </g>
</svg>
