<svg xmlns="http://www.w3.org/2000/svg" xmlns:xlink="http://www.w3.org/1999/xlink" width="60" height="60" viewBox="0 0 60 60">
  <defs>
    <clipPath id="clip-icons">
      <rect width="60" height="60"/>
    </clipPath>
  </defs>
  <g id="icons" clip-path="url(#clip-icons)">
    <g id="Group_2" data-name="Group 2" transform="translate(1 7)">
      <path id="Path_2" data-name="Path 2" d="M126.263,103.451h0a13.9,13.9,0,0,0-19.663,0l-1.58,1.58-1.606-1.606a13.9,13.9,0,0,0-19.663,19.663l1.606,1.606,19.663,19.663,19.636-19.636.026-.026,1.58-1.58A13.9,13.9,0,0,0,126.263,103.451Z" transform="translate(-76.047 -99.353)" fill="#8ccbd3"/>
      <path id="Path_3" data-name="Path 3" d="M103.485,138.013h0a1.38,1.38,0,0,1-1.379-1.379,10.692,10.692,0,0,1,6.593-9.877,1.379,1.379,0,1,1,1.053,2.549,7.94,7.94,0,0,0-4.887,7.328,1.379,1.379,0,0,1-1.38,1.379Z" transform="translate(-95.253 -122.731)" fill="#efefef"/>
      <path id="Path_4" data-name="Path 4" d="M85.5,183.275a1.774,1.774,0,0,1-1.664-1.139l-1.819-4.7H56.182a1.785,1.785,0,1,1,0-3.569H83.238a1.774,1.774,0,0,1,1.664,1.139l.6,1.541,6.42-16.581a1.785,1.785,0,0,1,3.327,0l5.382,13.9h9.907a1.785,1.785,0,0,1,0,3.569H99.4a1.8,1.8,0,0,1-1.664-1.14l-4.159-10.743-6.419,16.581A1.774,1.774,0,0,1,85.5,183.275Z" transform="translate(-54.398 -150.285)" fill="#0299c6"/>
    </g>
  </g>
</svg>
