<svg xmlns="http://www.w3.org/2000/svg" xmlns:xlink="http://www.w3.org/1999/xlink" width="60" height="60" viewBox="0 0 60 60">
  <defs>
    <clipPath id="clip-icons">
      <rect width="60" height="60"/>
    </clipPath>
  </defs>
  <g id="icons" clip-path="url(#clip-icons)">
    <g id="Group_4" data-name="Group 4" transform="translate(3.224 3)">
      <rect id="Rectangle_10" data-name="Rectangle 10" width="8.886" height="53.077" transform="translate(5.597)" fill="#c6c6c6"/>
      <path id="Path_8" data-name="Path 8" d="M312.2,303.385H280.866v53.077H312.2a3.317,3.317,0,0,0,3.317-3.317V306.7a3.318,3.318,0,0,0-3.317-3.315Z" transform="translate(-266.383 -303.385)" fill="#8ccbd3"/>
      <g id="Group_4-2" data-name="Group 4" transform="translate(0 5.144)">
        <path id="Path_9" data-name="Path 9" d="M273.615,319.139a5.6,5.6,0,0,0,5.6-5.594h-2.074a3.523,3.523,0,1,1-3.523-3.523v-2.074a5.6,5.6,0,1,0,0,11.191Z" transform="translate(-268.018 -307.948)" fill="#7a8e9b"/>
        <path id="Path_10" data-name="Path 10" d="M273.615,331.083a3.523,3.523,0,0,1,0-7.046v-2.074a5.6,5.6,0,1,0,5.6,5.6h-2.074a3.527,3.527,0,0,1-3.526,3.52Z" transform="translate(-268.018 -306.165)" fill="#7a8e9b"/>
        <path id="Path_11" data-name="Path 11" d="M273.615,345.1a3.523,3.523,0,1,1,0-7.046v-2.074a5.6,5.6,0,1,0,5.6,5.6h-2.074a3.527,3.527,0,0,1-3.526,3.519Z" transform="translate(-268.018 -304.381)" fill="#7a8e9b"/>
      </g>
      <g id="Group_5" data-name="Group 5" transform="translate(22.27 34.306)">
        <rect id="Rectangle_11" data-name="Rectangle 11" width="19.074" height="2.072" fill="#525c6b"/>
        <rect id="Rectangle_12" data-name="Rectangle 12" width="13.983" height="2.072" transform="translate(0 5.806)" fill="#525c6b"/>
      </g>
      <path id="Path_12" data-name="Path 12" d="M314.921,310.847H311.6v15.076h3.317a1.66,1.66,0,0,0,1.659-1.66V312.505a1.658,1.658,0,0,0-1.655-1.658Z" transform="translate(-262.472 -302.436)" fill="#0299c6"/>
      <path id="Path_13" data-name="Path 13" d="M305.926,321.619a8.708,8.708,0,1,1-8.707-8.706,8.708,8.708,0,0,1,8.707,8.706Z" transform="translate(-265.411 -302.173)" fill="#fff"/>
      <path id="Path_14" data-name="Path 14" d="M301.772,319.955H298.04v-3.732h-2.487v3.732H291.82v2.487h3.732v3.733h2.487v-3.733h3.732Z" transform="translate(-264.99 -301.751)" fill="#02a0ac"/>
    </g>
  </g>
</svg>
