<svg xmlns="http://www.w3.org/2000/svg" xmlns:xlink="http://www.w3.org/1999/xlink" width="60" height="60" viewBox="0 0 60 60">
  <defs>
    <clipPath id="clip-icons">
      <rect width="60" height="60"/>
    </clipPath>
  </defs>
  <g id="icons" clip-path="url(#clip-icons)">
    <g id="Group_5" data-name="Group 5" transform="translate(2.022 2.004)">
      <rect id="Rectangle_16" data-name="Rectangle 16" width="18.546" height="11.49" rx="5.745" transform="translate(24.818 18.036) rotate(45)" fill="#02a0ac"/>
      <path id="Path_18" data-name="Path 18" d="M61.886,257.01a4.778,4.778,0,0,0,2.656.1,1.133,1.133,0,0,0,.179-2.105,7.956,7.956,0,0,1-.83-.483,9.182,9.182,0,0,1-1.391-1.14,8.832,8.832,0,0,1-1.9-2.8,1.152,1.152,0,0,0-.616-.616,8.844,8.844,0,0,1-2.806-1.9,9.146,9.146,0,0,1-1.138-1.389,7.962,7.962,0,0,1-.484-.832,1.133,1.133,0,0,0-2.1.179,4.778,4.778,0,0,0,.1,2.656,3.66,3.66,0,0,1-.783,3.794l-6.752,6.752a3.542,3.542,0,0,1-3.7.748,4.764,4.764,0,1,0-2.33,9.2,1.681,1.681,0,0,1,1.4,1.4,4.764,4.764,0,1,0,9.2-2.33,3.541,3.541,0,0,1,.748-3.7l6.752-6.752a3.659,3.659,0,0,1,3.8-.782Z" transform="translate(-36 -218.601)" fill="#8ccbd3"/>
      <path id="Path_19" data-name="Path 19" d="M238.494,58.089l6.694-6.694a3.507,3.507,0,0,1,3.673-.831,4.764,4.764,0,1,0,2.413-9.173,1.7,1.7,0,0,1-1.4-1.4A4.764,4.764,0,1,0,240.7,42.4a3.507,3.507,0,0,1-.831,3.673l-6.694,6.694a3.507,3.507,0,0,1-3.673.831,4.764,4.764,0,1,0-2.413,9.173,1.7,1.7,0,0,1,1.4,1.4,4.764,4.764,0,1,0,9.173-2.413,3.506,3.506,0,0,1,.831-3.673Z" transform="translate(-199.299 -36)" fill="#8ccbd3"/>
    </g>
  </g>
</svg>
