<svg xmlns="http://www.w3.org/2000/svg" xmlns:xlink="http://www.w3.org/1999/xlink" width="60" height="60" viewBox="0 0 60 60">
  <defs>
    <clipPath id="clip-path">
      <rect id="Rectangle_193" data-name="Rectangle 193" width="40.707" height="58" fill="none"/>
    </clipPath>
  </defs>
  <g id="Group_350" data-name="Group 350" transform="translate(-2664 17)">
    <g id="Group_2999" data-name="Group 2999" transform="translate(2674 -16)" clip-path="url(#clip-path)">
      <path id="Path_557" data-name="Path 557" d="M49.848,24.011C47.579,34.224,34.372,28.124,38.426,41,34.768,28.83,50.292,35.207,49.848,24.011" transform="translate(-22.375 -14.267)" fill="#1799c6" fill-rule="evenodd"/>
      <path id="Path_558" data-name="Path 558" d="M14.621,14.963c.175,2.163.748,3.479,3.412,6.327a13.08,13.08,0,0,1-1.8-8.725,1.6,1.6,0,0,0-.727,1.389c-4.089-4.046.837-9.932,4.553-8.674.248.084-.671,1.551-.437,1.7,8.422-8.8,20.652.17,18.694,6.789C42.244,4.724,30.5-5,20.668,2.921,12.1.183,8.04,12.2,14.621,14.963" transform="translate(-6.748 0.001)" fill="#1799c6" fill-rule="evenodd"/>
      <path id="Path_559" data-name="Path 559" d="M36.856,49.159c3.566-3.056,4.318-9.631-.974-12.337-5.848-2.991-14.745,1.12-11.775,8.915C22.636,48.4,23.7,50.305,25.792,51c-1.968,2.611-10.344,1.562-13.445-7.942.065.3.443,1.709.556,2.053,1.058,4.531-3.585,2.749-7.207,2.786A5.227,5.227,0,0,0,1.077,50.36c-5.444,10.851,11.1,26.366,18.81,28.515,12.289,3.187,19.291-12.421,20.719-21.752.74-5.882-2.835-5.54-3.75-7.964m2.71,8.053c-1.593,9.055-12.045,20.64-17.685,19.668C13.561,74.439.086,58.911,3.46,53.073a4.2,4.2,0,0,1,2.805-2.187c2.476-.481,8.332,1.127,7.5-3.629a14.893,14.893,0,0,0,.79,1.436C11.8,51.05,18.116,61.257,28.835,56.6c-10.661,2.7-15.446-5.925-13.33-6.571A9.48,9.48,0,0,0,21.7,53.678a6.5,6.5,0,0,0,4.471-1.29,12.213,12.213,0,0,1,2.394-1.165,8.688,8.688,0,0,0,1.693-.379,8.047,8.047,0,0,1-2.191,0c-2.746-.387-4.285-2.31-2.707-5.276-2.042-4.605,2.783-8.745,8.379-6.826,6.3,2.283,2.99,9.153.239,11.363.965.668,2.054,2.678,1.756,6.08a8.1,8.1,0,0,1-1.786,3.891,12.854,12.854,0,0,0,2.5-3.828c1.2-3.1.294-5.781-.534-6.4a7.083,7.083,0,0,0,.869-.624c.511,2.538,3.449,2.844,2.783,7.989" transform="translate(0.001 -21.297)" fill="#1799c6" fill-rule="evenodd"/>
      <path id="Path_560" data-name="Path 560" d="M39.982,95.792c-3.152-3.318-12.588-13.311-12.322-12.421,1.737,4.3,9.639,10.92,11.8,14.843,1.864-2.213,6.777-5.954,6.4-5.869a22.573,22.573,0,0,0-5.884,3.447" transform="translate(-16.432 -49.504)" fill="#1799c6" fill-rule="evenodd"/>
      <path id="Path_561" data-name="Path 561" d="M47.692,50.447c.014,1.864,3.519,3.033,3.312,1.237-.852.491-2.91-.438-3.312-1.237" transform="translate(-28.338 -29.975)" fill="#1799c6" fill-rule="evenodd"/>
    </g>
    <rect id="Rectangle_194" data-name="Rectangle 194" width="60" height="60" transform="translate(2664 -17)" fill="none"/>
  </g>
</svg>
